<?xml version="1.0" encoding="utf-8"?>
<!-- Generator: Adobe Illustrator 16.0.0, SVG Export Plug-In . SVG Version: 6.00 Build 0)  -->
<!DOCTYPE svg PUBLIC "-//W3C//DTD SVG 1.1//EN" "http://www.w3.org/Graphics/SVG/1.1/DTD/svg11.dtd">
<svg version="1.1" id="Layer_1" xmlns="http://www.w3.org/2000/svg" xmlns:xlink="http://www.w3.org/1999/xlink" x="0px" y="0px"
	 width="24px" height="24px" viewBox="0 0 24 24" enable-background="new 0 0 24 24" xml:space="preserve">
<g>
	<g>
		<path d="M13.416,5.585c-0.128,0-0.256-0.049-0.354-0.146c-0.584-0.585-1.537-0.585-2.121,0c-0.195,0.195-0.514,0.195-0.707,0
			c-0.195-0.195-0.195-0.512,0-0.707c0.975-0.975,2.561-0.975,3.535,0c0.193,0.195,0.193,0.512,0,0.707
			C13.672,5.537,13.544,5.585,13.416,5.585z"/>
		<path d="M14.83,4.171c-0.128,0-0.256-0.049-0.354-0.146c-1.322-1.322-3.627-1.322-4.949,0c-0.195,0.195-0.512,0.195-0.707,0
			s-0.195-0.512,0-0.707C9.67,2.468,10.799,2,12.002,2s2.332,0.468,3.182,1.318c0.195,0.195,0.195,0.512,0,0.707
			C15.086,4.123,14.958,4.171,14.83,4.171z"/>
		<path d="M16.244,2.757c-0.129,0-0.256-0.049-0.354-0.146C14.852,1.573,13.469,1,12,1c-1.471,0-2.852,0.572-3.891,1.611
			c-0.193,0.195-0.512,0.195-0.707,0c-0.193-0.195-0.193-0.512,0-0.707C8.632,0.675,10.262,0,12,0s3.368,0.676,4.598,1.904
			c0.193,0.195,0.193,0.512,0,0.707C16.5,2.708,16.372,2.757,16.244,2.757z"/>
	</g>
	<path d="M12.064,24h-0.125c-2.445,0-4.438-1.992-4.438-4.438V8.092c0-1.154,0.939-2.094,2.094-2.094h4.813
		c1.153,0,2.094,0.939,2.094,2.094v11.469C16.502,22.008,14.512,24,12.064,24z M9.596,7C8.992,7,8.502,7.491,8.502,8.093v11.469
		c0,1.896,1.542,3.438,3.438,3.438h0.125c1.896,0,3.438-1.541,3.438-3.438V8.093C15.503,7.491,15.014,7,14.409,7H9.596z"/>
	<path d="M12.002,12c-0.827,0-1.5-0.673-1.5-1.5s0.673-1.5,1.5-1.5s1.5,0.673,1.5,1.5S12.829,12,12.002,12z M12.002,10
		c-0.275,0-0.5,0.224-0.5,0.5s0.225,0.5,0.5,0.5s0.5-0.224,0.5-0.5S12.277,10,12.002,10z"/>
</g>
</svg>
