<?xml version="1.0" encoding="utf-8"?>
<!-- Generator: Adobe Illustrator 16.0.0, SVG Export Plug-In . SVG Version: 6.00 Build 0)  -->
<!DOCTYPE svg PUBLIC "-//W3C//DTD SVG 1.1//EN" "http://www.w3.org/Graphics/SVG/1.1/DTD/svg11.dtd">
<svg version="1.1" id="Layer_1" xmlns="http://www.w3.org/2000/svg" xmlns:xlink="http://www.w3.org/1999/xlink" x="0px" y="0px"
	 width="96px" height="96px" viewBox="0 0 96 96" enable-background="new 0 0 96 96" xml:space="preserve">
<g id="icomoon-ignore">
	<line fill="none" stroke="#449FDB" x1="0" y1="0" x2="0" y2="0"/>
</g>
<path fill="white" d="M48,96H8c-4.412,0-8-3.584-8-8V8c0-4.416,3.588-8,8-8h40c4.416,0,8,3.584,8,8v80C56,92.416,52.416,96,48,96z M8,4
	C5.796,4,4,5.796,4,8v80c0,2.204,1.796,4,4,4h40c2.204,0,4-1.796,4-4V8c0-2.204-1.796-4-4-4H8z"/>
<path fill="white" d="M52,20H4c-1.104,0-2-0.896-2-2s0.896-2,2-2h48c1.1,0,2,0.896,2,2S53.1,20,52,20z"/>
<path fill="white" d="M28,12c-0.52,0-1.04-0.2-1.4-0.6C26.2,11.04,26,10.52,26,10s0.2-1.04,0.6-1.4c0.72-0.76,2.08-0.76,2.8,0
	C29.8,8.956,30,9.44,30,10c0,0.52-0.2,1.04-0.6,1.44C29.04,11.8,28.52,12,28,12z"/>
<path fill="white" d="M52,80H4c-1.104,0-2-0.9-2-2s0.896-2,2-2h48c1.1,0,2,0.9,2,2S53.1,80,52,80z"/>
<path fill="white" d="M94,36c-1.1,0-2-0.896-2-2C92,17.456,78.544,4,62,4c-1.1,0-2-0.896-2-2s0.9-2,2-2c18.752,0,34,15.252,34,34
	C96,35.104,95.1,36,94,36z"/>
<path fill="white" d="M70,36c-1.1,0-2-0.896-2-2c0-3.308-2.691-6-6-6c-1.1,0-2-0.896-2-2s0.9-2,2-2c5.512,0,10,4.488,10,10
	C72,35.104,71.1,36,70,36z"/>
<path fill="white" d="M82,36c-1.1,0-2-0.896-2-2c0-9.924-8.08-18-18-18c-1.1,0-2-0.896-2-2s0.9-2,2-2c12.132,0,22,9.868,22,22
	C84,35.104,83.1,36,82,36z"/>
<path fill="white" d="M32,88h-8c-1.104,0-2-0.9-2-2s0.896-2,2-2h8c1.104,0,2,0.9,2,2S33.104,88,32,88z"/>
</svg>
